PathFileType	3	(X/Y/Z)	F:\ViconData\AntennenMessung\Messung1\Session1\ID05.trc
DataRate	CameraRate	NumFrames	NumMarkers	Units	OrigDataRate	OrigDataStartFrame	OrigNumFrames
120.0	120.0	6	70	mm	120.0	997	1328	
Frame#	Time	Ashort			Along			Atop			A4			Bshort			Blong			Btop			B4			Cshort			Clong			Ctop			C4			Dshort			Dlong			Dtop			D4			Eshort			Elong			Etop			E4			Fshort			Flong			Ftop			F4			Gshort			Glong			Gtop			G4			Hshort			Hlong			Htop			H4			I1			I2			I3			I4			I5			WandAshort			WandAlong			WandAtop			WandA4			WandA15			WandBshort			WandB4			WandB5			WandBtop			WandBlong			WandCshort			WandClong			WandCtop			WandC4			WandC5			Acenter			Aantenna			Bcenter			Bantenna			Ccenter			Cantenna			Dcenter			Dantenna			Ecenter			Eantenna			Fcenter			Fantenna			Gcenter			Gantenna			Hcenter			Hantenna			Icenter			Iantenna			
		X1	Y1	Z1	X2	Y2	Z2	X3	Y3	Z3	X4	Y4	Z4	X5	Y5	Z5	X6	Y6	Z6	X7	Y7	Z7	X8	Y8	Z8	X9	Y9	Z9	X10	Y10	Z10	X11	Y11	Z11	X12	Y12	Z12	X13	Y13	Z13	X14	Y14	Z14	X15	Y15	Z15	X16	Y16	Z16	X17	Y17	Z17	X18	Y18	Z18	X19	Y19	Z19	X20	Y20	Z20	X21	Y21	Z21	X22	Y22	Z22	X23	Y23	Z23	X24	Y24	Z24	X25	Y25	Z25	X26	Y26	Z26	X27	Y27	Z27	X28	Y28	Z28	X29	Y29	Z29	X30	Y30	Z30	X31	Y31	Z31	X32	Y32	Z32	X33	Y33	Z33	X34	Y34	Z34	X35	Y35	Z35	X36	Y36	Z36	X37	Y37	Z37	X38	Y38	Z38	X39	Y39	Z39	X40	Y40	Z40	X41	Y41	Z41	X42	Y42	Z42	X43	Y43	Z43	X44	Y44	Z44	X45	Y45	Z45	X46	Y46	Z46	X47	Y47	Z47	X48	Y48	Z48	X49	Y49	Z49	X50	Y50	Z50	X51	Y51	Z51	X52	Y52	Z52	X53	Y53	Z53	X54	Y54	Z54	X55	Y55	Z55	X56	Y56	Z56	X57	Y57	Z57	X58	Y58	Z58	X59	Y59	Z59	X60	Y60	Z60	X61	Y61	Z61	X62	Y62	Z62	X63	Y63	Z63	X64	Y64	Z64	X65	Y65	Z65	X66	Y66	Z66	X67	Y67	Z67	X68	Y68	Z68	X69	Y69	Z69	X70	Y70	Z70	
997	8.3	-1038.2635	214.45213	-1644.2366	-1109.2964	203.41225	-1599.5314	-1063.5521	172.60379	-1625.5834	-1054.1448	262.10992	-1634.9919	-1353.0562	234.77895	1003.8781	-1281.2539	226.97821	1052.3444	-1323.0555	194.07571	1020.7991	-1284.7275	287.81775	1052.8154	813.89752	187.71774	1209.6583	892.78156	178.91187	1178.8494	844.63568	145.23874	1198.2766	860.57361	292.28128	1167.316	1115.7833	209.69623	-1401.7301	1056.2012	194.02115	-1460.2423	1095.0676	162.27745	-1423.8541	1069.8954	238.53133	-1425.9083	-1204.4457	1685.9293	-1563.3444	-1129.101	1688.2781	-1606.3413	-1173.1282	1724.3892	-1581.998	-1133.5175	1581.0273	-1603.5413	-1239.6729	1699.2155	1119.3296	-1309.361	1698.7705	1071.7888	-1270.3628	1736.2261	1096.7218	-1244.6278	1594.079	1106.537	988.89893	1664.2871	1162.3888	955.93518	1702.3018	1181.1876	922.87946	1662.0115	1215.0696	939.85333	1659.2825	1160.0557	999.24536	1668.5581	-1579.5645	1058.9014	1670.1272	-1518.6787	1025.1011	1708.002	-1551.1765	1059.3367	1672.203	-1585.6561	-187.89651	1141.6208	506.41464	-185.50273	1144.1759	427.4899	-186.9722	1179.6471	475.29419	-224.46992	1141.6967	473.42847	-139.2372	1144.0787	475.09265																																														-1068.9147	209.68835	-1624.946	-1074.4952	248.28131	-1624.2826	-1321.8147	231.3848	1024.9659	-1320.5264	270.12268	1029.2922	848.16815	183.89207	1196.2734	851.71289	222.6786	1194.2633	1088.7784	202.59171	-1428.2499	1082.8018	240.90393	-1432.4274	-1171.911	1686.9434	-1581.9109	-1170.6442	1647.9641	-1581.8202	-1270.9786	1699.0155	1097.9728	-1271.6239	1660.0427	1099.2832	953.70758	1704.8705	1182.4579	973.0824	1731.8064	1161.9624	1026.5992	1669.2775	-1551.6465	1028.1069	1630.3094	-1552.1194	-186.91638	1142.667	474.09879	-186.85754	1103.6874	472.83871
998	8.3083333	-1038.2587	214.47417	-1644.2576	-1109.2906	203.45074	-1599.5566	-1063.5902	172.64627	-1625.5399	-1054.1381	262.07761	-1634.9714	-1352.9546	234.77397	1003.8547	-1281.3043	226.9639	1052.3357	-1322.9476	194.17679	1020.7518	-1284.7063	287.7865	1052.8076	813.87384	187.72198	1209.7264	892.85437	178.93941	1178.801	844.69885	145.03201	1198.4773	860.53845	292.27579	1167.3646	1115.7953	209.71919	-1401.7297	1056.2015	194.01474	-1460.2546	1095.0182	162.20973	-1423.9138	1069.8859	238.57764	-1425.9453	-1204.4432	1685.9379	-1563.3418	-1129.1047	1688.214	-1606.0968	-1173.1296	1724.3865	-1581.9938	-1133.5153	1581.0479	-1603.5654	-1239.6625	1699.2147	1119.3274	-1309.4442	1698.9474	1071.8531	-1270.3147	1736.1564	1096.7051	-1244.6469	1593.9985	1106.5077	988.92737	1664.3049	1162.4034	955.89441	1702.2632	1181.2883	922.83411	1662.0826	1215.0251	939.87054	1659.3253	1160.0081	999.24231	1668.5856	-1579.5823	1058.928	1670.1309	-1518.6776	1025.1107	1708.0179	-1551.168	1059.3418	1672.2045	-1585.6841	-187.87552	1141.6112	506.39801	-185.50101	1144.1798	427.48199	-186.97624	1179.6881	475.29675	-224.2045	1141.4188	473.44083	-139.24797	1144.0597	475.09534																																														-1068.9618	209.70935	-1624.9358	-1074.5551	248.30106	-1624.3068	-1321.7476	231.37231	1024.9705	-1320.4982	270.10397	1029.3633	848.16858	183.90842	1196.2981	851.63019	222.6936	1194.1241	1088.7125	202.58223	-1428.3267	1082.7291	240.89233	-1432.5139	-1171.8951	1686.9211	-1581.813	-1170.6108	1647.9426	-1581.6248	-1271.0402	1699.0944	1097.9802	-1271.8032	1660.125	1099.3212	953.56134	1704.944	1182.6221	972.922	1731.9502	1162.2056	1026.6105	1669.2939	-1551.655	1028.1196	1630.3263	-1552.1454	-186.90352	1142.6626	474.09381	-186.82697	1103.6833	472.82739
999	8.3166667	-1038.2505	214.44881	-1644.2485	-1109.3243	203.39142	-1599.5262	-1063.4741	172.70755	-1625.6012	-1053.9954	262.00232	-1634.9896	-1352.9172	234.77821	1003.9274	-1281.2352	226.95305	1052.3629	-1322.9962	194.1041	1020.8494	-1284.4884	288.13071	1052.7394	813.89282	187.74657	1209.6379	892.86731	178.93924	1178.8051	844.56689	145.25377	1198.2957	860.43738	292.36618	1167.5159	1115.7288	209.44252	-1401.5992	1056.1635	194.00652	-1460.2468	1095.0393	162.24072	-1423.879	1069.8671	238.58495	-1425.9785	-1204.4535	1685.9344	-1563.3457	-1129.0914	1688.2866	-1606.3295	-1173.123	1724.3884	-1581.9789	-1133.5099	1581.0079	-1603.5115	-1239.7072	1699.2695	1119.3403	-1309.4595	1698.9344	1071.8542	-1270.2937	1736.1198	1096.6888	-1244.6718	1593.8811	1106.5857	988.86774	1664.2374	1162.3939	955.8891	1702.4115	1181.2977	922.27789	1662.2289	1214.9124	939.82568	1659.3369	1160.0542	999.24835	1668.5634	-1579.5858	1058.7916	1669.9645	-1518.6936	1025.101	1708.0051	-1551.1807	1059.3278	1672.1998	-1585.6912	-187.88081	1141.6501	506.46286	-185.48352	1144.1869	427.48001	-186.98868	1179.6716	475.30472	-224.30974	1141.5607	473.47733	-139.27747	1144.0439	475.09418																																														-1068.8468	209.68874	-1624.9961	-1074.4532	248.2785	-1624.3647	-1321.7318	231.37386	1024.9993	-1320.4175	270.11227	1029.3127	848.09521	183.93228	1196.2848	851.63348	222.71904	1194.2681	1088.7924	202.46213	-1428.1205	1082.8391	240.79253	-1432.1627	-1171.9126	1686.9501	-1581.9056	-1170.6523	1647.9705	-1581.8295	-1271.0228	1699.119	1098.021	-1271.7908	1660.1517	1099.4238	953.50323	1705.1731	1182.6654	973.10657	1732.1337	1162.4207	1026.5304	1669.2052	-1551.6855	1027.9661	1630.235	-1552.1927	-186.89911	1142.6888	474.11966	-186.80472	1103.709	472.87064
1000	8.325	-1038.2577	214.40822	-1644.2291	-1109.3149	203.41672	-1599.5374	-1063.442	172.64175	-1625.6586	-1053.9718	262.00769	-1634.9835	-1353.0326	234.771	1003.9129	-1281.2996	226.97771	1052.3475	-1322.9905	194.10672	1020.8316	-1284.4855	288.02948	1052.7896	813.87378	187.68709	1209.6202	892.92554	179.09689	1178.731	844.54688	145.13399	1198.3352	860.52472	292.20865	1167.4767	1115.7753	209.71149	-1401.7461	1056.2072	194.00032	-1460.2377	1095.0624	162.29228	-1423.8551	1069.8846	238.59125	-1425.9368	-1204.4625	1685.9392	-1563.3542	-1129.0712	1688.3782	-1606.5153	-1173.1234	1724.3885	-1581.9921	-1133.4783	1580.981	-1603.4817	-1239.6621	1699.1998	1119.3197	-1309.3694	1698.7611	1071.7877	-1270.2897	1736.1311	1096.6949	-1244.6074	1594.0874	1106.5112	988.87439	1664.2566	1162.3998	955.78729	1702.5397	1181.2639	922.7005	1662.0508	1215.0383	939.81494	1659.3088	1160.0408	999.27313	1668.5414	-1579.5643	1058.9229	1670.139	-1518.6813	1025.1061	1708.0099	-1551.1838	1059.3434	1672.205	-1585.6812	-187.88383	1141.6357	506.4826	-185.50905	1144.1882	427.47491	-186.97511	1179.6558	475.29474	-224.43048	1141.6813	473.42218	-139.27441	1144.0438	475.08975																																														-1068.7788	209.68706	-1625.0328	-1074.3389	248.28314	-1624.3809	-1321.7704	231.37457	1025.0214	-1320.5026	270.10995	1029.376	847.97168	183.98181	1196.2966	851.39203	222.77815	1194.2607	1088.7664	202.58786	-1428.2667	1082.7808	240.89688	-1432.4609	-1171.9119	1686.9922	-1581.9891	-1170.6492	1648.0127	-1581.9863	-1270.9402	1699.0028	1097.9918	-1271.623	1660.0326	1099.3529	953.72418	1704.9266	1182.4402	973.18988	1731.829	1161.9866	1026.6207	1669.2738	-1551.6512	1028.1444	1630.3065	-1552.1215	-186.91055	1142.6819	474.10214	-186.8425	1103.7021	472.84488
1001	8.3333333	-1038.2754	214.41978	-1644.2123	-1109.306	203.48528	-1599.5581	-1063.5142	173.05492	-1625.7837	-1053.9923	262.01694	-1635.0344	-1352.9551	234.97084	1003.8161	-1281.2612	227.00177	1052.3594	-1323.0935	194.05128	1020.8414	-1284.5897	287.8381	1052.7386	813.87189	187.72198	1209.7039	892.9986	179.08902	1178.8146	844.745	145.13176	1198.3651	860.51166	292.28149	1167.3256	1115.734	209.44653	-1401.587	1056.1721	193.96991	-1460.2314	1095.0444	162.25006	-1423.874	1069.8639	238.56929	-1425.9813	-1204.4585	1685.9432	-1563.3448	-1129.0966	1688.2341	-1606.1283	-1173.1454	1724.3347	-1581.9214	-1133.521	1581.0042	-1603.5105	-1239.6997	1699.2567	1119.3359	-1309.4399	1698.9247	1071.845	-1270.3096	1736.1367	1096.6975	-1244.6005	1594.0435	1106.5476	988.89551	1664.2909	1162.3795	955.92773	1702.3796	1181.2272	922.25861	1662.2731	1214.9161	939.88037	1659.3521	1159.993	999.24792	1668.5548	-1579.5787	1058.9275	1670.137	-1518.6807	1025.1038	1708.0112	-1551.1836	1059.329	1672.1938	-1585.6891	-187.89729	1141.6448	506.45709	-185.50723	1144.1746	427.47513	-186.97366	1179.6658	475.28766	-224.29385	1141.5525	473.46225	-139.25534	1144.0608	475.09375																																														-1068.7153	209.7338	-1625.0757	-1074.1901	248.34044	-1624.3306	-1321.7222	231.49916	1024.9635	-1320.3035	270.23935	1029.228	848.18109	183.97873	1196.3102	851.61261	222.77324	1194.2581	1088.7833	202.44366	-1428.1223	1082.8131	240.77049	-1432.1733	-1171.9421	1686.9316	-1581.8046	-1170.688	1647.9519	-1581.6829	-1271.0237	1699.1074	1098.005	-1271.7754	1660.1389	1099.3813	953.45068	1705.2412	1182.6433	973.02893	1732.2109	1162.3867	1026.6123	1669.2802	-1551.6556	1028.13	1630.3126	-1552.1306	-186.91829	1142.681	474.10468	-186.85994	1103.701	472.85791
1002	8.3416667	-1038.255	214.3688	-1644.2031	-1109.2872	203.43985	-1599.5321	-1063.6295	172.57214	-1625.5552	-1054.1113	262.07748	-1634.9718	-1352.92	234.98137	1003.901	-1281.3	227.03146	1052.3586	-1323.0431	194.07637	1020.8251	-1284.4569	288.18018	1052.725	813.90662	187.71465	1209.6365	892.97864	179.19173	1178.7775	844.6734	145.16692	1198.4103	860.53369	292.23227	1167.4438	1115.7836	209.69374	-1401.7368	1056.2325	194.04276	-1460.2476	1095.0322	162.27454	-1423.8751	1069.8674	238.56145	-1425.9523	-1204.4519	1685.9482	-1563.3499	-1129.1036	1688.2828	-1606.3307	-1173.1244	1724.395	-1581.9932	-1133.5072	1581.0258	-1603.532	-1239.7012	1699.2627	1119.3441	-1309.3578	1698.7804	1071.792	-1270.2958	1736.1437	1096.6927	-1244.649	1593.8754	1106.5022	988.90808	1664.2997	1162.3809	955.86401	1702.3219	1181.2494	922.31305	1662.3207	1214.9705	939.86328	1659.3435	1160.0161	999.23883	1668.5818	-1579.5815	1058.9215	1670.1346	-1518.6791	1025.0941	1707.9962	-1551.1851	1059.3303	1672.1884	-1585.6921	-187.8696	1141.6245	506.44427	-185.48875	1144.1754	427.47855	-186.97778	1179.656	475.28802	-224.3074	1141.5615	473.479	-139.19307	1144.1249	475.09079																																														-1068.9298	209.64917	-1624.9121	-1074.4481	248.25099	-1624.2429	-1321.7192	231.51805	1025.0112	-1320.3499	270.25266	1029.3418	848.04456	184.03502	1196.3135	851.40973	222.83316	1194.2207	1088.7661	202.59309	-1428.2822	1082.8115	240.90759	-1432.4706	-1171.9164	1686.9562	-1581.9089	-1170.6586	1647.9767	-1581.8213	-1270.9426	1699.0464	1098.0166	-1271.6221	1660.0771	1099.4073	953.30591	1705.2651	1182.71	972.79755	1732.2733	1162.4211	1026.5935	1669.2936	-1551.6676	1028.1034	1630.3258	-1552.1534	-186.89427	1142.6694	474.09573	-186.80626	1103.6898	472.83917
